<svg width="1216" height="508" viewBox="0 0 1216 508" fill="none" xmlns="http://www.w3.org/2000/svg">
<path fill-rule="evenodd" clip-rule="evenodd" d="M968 373.386L998 356V390.773L968 373.386ZM990.5 369.295L983 373.386L990.5 377.477V369.295Z" fill="#27AAF0" fill-opacity="0.62"/>
<path d="M983 373.386L990.5 369.295V377.477L983 373.386Z" fill="#27AAF0" fill-opacity="0.62"/>
<path d="M983 373.386L990.5 369.295V377.477L983 373.386Z" fill="#153276"/>
<path fill-rule="evenodd" clip-rule="evenodd" d="M821.735 288.296L832.219 269L843.69 287.8L821.735 288.296ZM832.55 278.662L829.845 283.348L835.249 283.086L832.55 278.662Z" fill="#27AAF0" fill-opacity="0.51"/>
<path d="M829.845 283.348L832.55 278.662L835.249 283.086L829.845 283.348Z" fill="#27AAF0" fill-opacity="0.51"/>
<path d="M829.845 283.348L832.55 278.662L835.249 283.086L829.845 283.348Z" fill="#27AAF0"/>
<path fill-rule="evenodd" clip-rule="evenodd" d="M672 122.489L697 108V136.977L672 122.489ZM690.75 119.08L684.5 122.489L690.75 125.898V119.08Z" fill="#153276" fill-opacity="0.54"/>
<path d="M684.5 122.489L690.75 119.08V125.898L684.5 122.489Z" fill="#153276" fill-opacity="0.54"/>
<path d="M684.5 122.489L690.75 119.079V125.898L684.5 122.489Z" fill="#153276"/>
<path d="M482 216V254L515 234.627L482 216Z" fill="#27AAF0" fill-opacity="0.44"/>
<path d="M496 356L534 377.765L496 401V356Z" fill="#153276" fill-opacity="0.79"/>
<path d="M939 219L977 240.765L939 264V219Z" fill="#27AAF0" fill-opacity="0.83"/>
<path d="M745 352L758 359.255L745 367V352Z" fill="#27AAF0"/>
<path d="M701 222L717 230.706L701 240V222Z" fill="#153276" fill-opacity="0.56"/>
<path d="M634 277L672 298.765L634 322V277Z" fill="#27AAF0" fill-opacity="0.22"/>
<path d="M145 263V306L183 284.5L145 263Z" fill="#27AAF0" fill-opacity="0.5"/>
<path d="M164 414V457L202 435.5L164 414Z" fill="#153276" fill-opacity="0.28"/>
<path d="M886 339V362L906 350.5L886 339Z" fill="#27AAF0"/>
<path d="M833 185V198L844 191.5L833 185Z" fill="#27AAF0"/>
<path d="M826 174L811 174L818.5 187L826 174Z" fill="#27AAF0"/>
<path d="M846 116V159L884 137.5L846 116Z" fill="#153276" fill-opacity="0.17"/>
<path d="M692 0V15L705 7.5L692 0Z" fill="#27AAF0"/>
<path d="M351 200V213L362 206.303L351 200Z" fill="#153277" fill-opacity="0.55"/>
<path d="M540 292V324L567 307.515L540 292Z" fill="#153276" fill-opacity="0.46"/>
<path d="M208 243V254L217 248.333L208 243Z" fill="#27AAF0" fill-opacity="0.33"/>
<path d="M362 320L369 316V324L362 320Z" fill="black"/>
<path d="M501 171L510 166V176L501 171Z" fill="#153276"/>
<path d="M0 348.5L10 343V354L0 348.5Z" fill="#27AAF0" fill-opacity="0.79"/>
<path d="M228 387L238 381V393L228 387Z" fill="#27AAF0"/>
<path d="M801 69V86L816 77.5L801 69Z" fill="#27AAF0" fill-opacity="0.71"/>
<path d="M1014.96 195.168L990.162 219.867L1024.44 229.482L1014.96 195.168Z" fill="#153276" fill-opacity="0.67"/>
<path d="M1083 233V268L1114 250.5L1083 233Z" fill="#153276" fill-opacity="0.09"/>
<path d="M1009 308V325L1024 316.5L1009 308Z" fill="#27AAF0" fill-opacity="0.32"/>
<path d="M1050.83 364L1047 370.924L1055.03 370.844L1050.83 364Z" fill="#27AAF0" fill-opacity="0.56"/>
<path d="M124 286V307L142 296.216L124 286Z" fill="#153276" fill-opacity="0.72"/>
<path d="M84 264V283L100 273.5L84 264Z" fill="#27AAF0" fill-opacity="0.24"/>
<path d="M183 347V366L199 356.5L183 347Z" fill="#27AAF0"/>
<path d="M215 389V413L235 401L215 389Z" fill="#153276" fill-opacity="0.83"/>
<path d="M244 363V381L259 372L244 363Z" fill="#27AAF0" fill-opacity="0.58"/>
<path d="M304.5 164H257.5L211 265V298H285V332.5H330.5V298H350.5V262H330.5V228H285.5V262H260.5L304.5 164Z" fill="#27AAF0"/>
<path fill-rule="evenodd" clip-rule="evenodd" d="M360.5 248.5C360.5 298 379.5 334 427.5 334C475.5 334 494.5 298 494.5 248.5C494.5 199 474 163 427.5 163C381 163 360.5 199 360.5 248.5ZM424.5 197H429.5C434.5 197 447.5 197 447.5 238C447.5 253.78 447.489 255.943 447.479 254.682C447.485 256.793 447.491 259.804 447.5 264C447.575 299.925 434.5 300 429.5 300H424.5C419.5 300 407.5 300 407.5 264V238C407.5 197 419.5 197 424.5 197Z" fill="#27AAF0"/>
<path d="M508.5 298V265L554.5 164L601.5 164.5L558.5 259.5V262H582.5V228H622.5L582.5 328.5V298H508.5Z" fill="#27AAF0"/>
<path d="M622.5 228L582.5 328.5L560 388L612.5 262L626.5 228L667 121L622.5 228Z" fill="#27AAF0"/>
<path d="M687.84 202.52C685.309 202.52 683.073 202.173 681.132 201.48C679.191 200.752 677.336 199.591 675.568 197.996C674.84 197.372 674.476 196.661 674.476 195.864C674.476 195.24 674.719 194.685 675.204 194.2C675.689 193.68 676.261 193.42 676.92 193.42C677.509 193.42 678.012 193.611 678.428 193.992C679.815 195.275 681.236 196.228 682.692 196.852C684.183 197.441 685.864 197.736 687.736 197.736C689.92 197.736 691.757 197.233 693.248 196.228C694.773 195.223 695.536 193.957 695.536 192.432C695.501 190.629 694.739 189.243 693.248 188.272C691.792 187.267 689.556 186.435 686.54 185.776C682.969 185.048 680.213 183.852 678.272 182.188C676.365 180.524 675.412 178.219 675.412 175.272C675.412 173.227 675.949 171.441 677.024 169.916C678.099 168.356 679.589 167.16 681.496 166.328C683.403 165.496 685.552 165.08 687.944 165.08C690.093 165.08 692.121 165.427 694.028 166.12C695.935 166.813 697.477 167.732 698.656 168.876C699.453 169.569 699.852 170.315 699.852 171.112C699.852 171.736 699.609 172.291 699.124 172.776C698.673 173.261 698.119 173.504 697.46 173.504C696.975 173.504 696.576 173.365 696.264 173.088C695.363 172.187 694.115 171.424 692.52 170.8C690.925 170.176 689.4 169.864 687.944 169.864C685.621 169.864 683.767 170.349 682.38 171.32C681.028 172.256 680.352 173.504 680.352 175.064C680.352 176.763 681.028 178.063 682.38 178.964C683.767 179.865 685.812 180.628 688.516 181.252C691.22 181.841 693.421 182.535 695.12 183.332C696.853 184.129 698.188 185.239 699.124 186.66C700.06 188.081 700.528 189.936 700.528 192.224C700.528 194.235 699.956 196.02 698.812 197.58C697.703 199.14 696.177 200.353 694.236 201.22C692.295 202.087 690.163 202.52 687.84 202.52ZM744.154 183.8C744.154 187.301 743.391 190.473 741.866 193.316C740.375 196.159 738.295 198.412 735.626 200.076C732.956 201.705 729.94 202.52 726.578 202.52C723.215 202.52 720.199 201.705 717.53 200.076C714.86 198.412 712.763 196.159 711.238 193.316C709.747 190.473 709.002 187.301 709.002 183.8C709.002 180.299 709.747 177.127 711.238 174.284C712.763 171.441 714.86 169.205 717.53 167.576C720.199 165.912 723.215 165.08 726.578 165.08C729.94 165.08 732.956 165.912 735.626 167.576C738.295 169.205 740.375 171.441 741.866 174.284C743.391 177.127 744.154 180.299 744.154 183.8ZM738.798 183.8C738.798 181.2 738.278 178.86 737.238 176.78C736.198 174.665 734.742 173.019 732.87 171.84C731.032 170.627 728.935 170.02 726.578 170.02C724.22 170.02 722.106 170.609 720.234 171.788C718.396 172.967 716.958 174.613 715.918 176.728C714.878 178.808 714.358 181.165 714.358 183.8C714.358 186.4 714.878 188.757 715.918 190.872C716.958 192.952 718.396 194.599 720.234 195.812C722.106 196.991 724.22 197.58 726.578 197.58C728.935 197.58 731.032 196.991 732.87 195.812C734.742 194.599 736.198 192.952 737.238 190.872C738.278 188.757 738.798 186.4 738.798 183.8ZM786.307 165.548C787 165.583 787.59 165.843 788.075 166.328C788.56 166.779 788.803 167.351 788.803 168.044V199.504C788.803 200.197 788.56 200.787 788.075 201.272C787.624 201.757 787.018 202 786.255 202C785.492 202 784.868 201.775 784.383 201.324C783.898 200.839 783.655 200.232 783.655 199.504V175.428L773.567 190.716C773.324 191.028 773.012 191.288 772.631 191.496C772.284 191.704 771.92 191.791 771.539 191.756C771.192 191.791 770.828 191.704 770.447 191.496C770.1 191.288 769.806 191.028 769.563 190.716L759.423 174.96V199.504C759.423 200.232 759.198 200.839 758.747 201.324C758.331 201.775 757.759 202 757.031 202C756.338 202 755.766 201.775 755.315 201.324C754.899 200.839 754.691 200.232 754.691 199.504V168.044C754.691 167.385 754.934 166.813 755.419 166.328C755.904 165.808 756.511 165.548 757.239 165.548C757.655 165.548 758.054 165.652 758.435 165.86C758.851 166.068 759.18 166.345 759.423 166.692L771.747 185.36L784.227 166.692C784.782 165.929 785.475 165.548 786.307 165.548ZM822.041 197.216C822.769 197.216 823.358 197.459 823.809 197.944C824.294 198.429 824.537 199.001 824.537 199.66C824.537 200.353 824.294 200.925 823.809 201.376C823.358 201.792 822.769 202 822.041 202H803.945C803.251 202 802.662 201.757 802.177 201.272C801.691 200.787 801.449 200.197 801.449 199.504V168.096C801.449 167.403 801.691 166.813 802.177 166.328C802.662 165.843 803.251 165.6 803.945 165.6H822.041C822.769 165.6 823.358 165.825 823.809 166.276C824.294 166.727 824.537 167.316 824.537 168.044C824.537 168.737 824.294 169.309 823.809 169.76C823.358 170.176 822.769 170.384 822.041 170.384H806.597V180.992H819.701C820.429 180.992 821.018 181.217 821.469 181.668C821.954 182.119 822.197 182.691 822.197 183.384C822.197 184.112 821.954 184.684 821.469 185.1C821.018 185.516 820.429 185.724 819.701 185.724H806.597V197.216H822.041ZM858.713 165.6C859.441 165.6 860.03 165.825 860.481 166.276C860.966 166.692 861.209 167.264 861.209 167.992C861.209 168.72 860.966 169.292 860.481 169.708C860.03 170.124 859.441 170.332 858.713 170.332H849.457V199.504C849.457 200.197 849.197 200.787 848.677 201.272C848.192 201.757 847.568 202 846.805 202C846.042 202 845.401 201.757 844.881 201.272C844.396 200.787 844.153 200.197 844.153 199.504V170.332H834.949C834.221 170.332 833.614 170.124 833.129 169.708C832.678 169.257 832.453 168.668 832.453 167.94C832.453 167.247 832.678 166.692 833.129 166.276C833.614 165.825 834.221 165.6 834.949 165.6H858.713ZM897.407 165.6C898.169 165.6 898.793 165.843 899.279 166.328C899.764 166.779 900.007 167.368 900.007 168.096V199.452C899.972 200.18 899.712 200.787 899.227 201.272C898.741 201.757 898.117 202 897.355 202C896.661 202 896.055 201.757 895.535 201.272C895.049 200.787 894.807 200.18 894.807 199.452V185.984H876.347V199.452C876.347 200.18 876.087 200.787 875.567 201.272C875.047 201.757 874.44 202 873.747 202C872.984 202 872.36 201.757 871.875 201.272C871.424 200.787 871.199 200.18 871.199 199.452V168.096C871.199 167.403 871.441 166.813 871.927 166.328C872.412 165.843 873.036 165.6 873.799 165.6C874.492 165.6 875.081 165.843 875.567 166.328C876.087 166.813 876.347 167.403 876.347 168.096V181.2H894.807V168.096C894.807 167.403 895.067 166.813 895.587 166.328C896.107 165.843 896.713 165.6 897.407 165.6ZM917.722 199.452C917.722 200.18 917.462 200.787 916.942 201.272C916.422 201.757 915.815 202 915.122 202C914.359 202 913.735 201.757 913.25 201.272C912.799 200.787 912.574 200.18 912.574 199.452V168.096C912.574 167.403 912.816 166.813 913.302 166.328C913.787 165.843 914.411 165.6 915.174 165.6C915.867 165.6 916.456 165.843 916.942 166.328C917.462 166.813 917.722 167.403 917.722 168.096V199.452ZM957.532 165.6C958.19 165.6 958.728 165.825 959.144 166.276C959.56 166.692 959.768 167.229 959.768 167.888V199.452C959.768 200.18 959.525 200.787 959.04 201.272C958.589 201.757 958 202 957.272 202C956.89 202 956.509 201.948 956.128 201.844C955.781 201.705 955.504 201.515 955.296 201.272L934.86 174.648V199.712C934.86 200.371 934.634 200.925 934.184 201.376C933.768 201.792 933.23 202 932.572 202C931.913 202 931.376 201.792 930.96 201.376C930.544 200.925 930.336 200.371 930.336 199.712V168.096C930.336 167.368 930.561 166.779 931.012 166.328C931.497 165.843 932.086 165.6 932.78 165.6C933.196 165.6 933.594 165.687 933.976 165.86C934.357 165.999 934.652 166.207 934.86 166.484L955.244 193.16V167.888C955.244 167.229 955.452 166.692 955.868 166.276C956.318 165.825 956.873 165.6 957.532 165.6ZM999.149 182.864C999.843 182.864 1000.41 183.107 1000.87 183.592C1001.35 184.077 1001.59 184.667 1001.59 185.36V197.06C1001.59 197.996 1001.18 198.724 1000.35 199.244C998.751 200.284 997 201.099 995.093 201.688C993.187 202.243 991.228 202.52 989.217 202.52C985.751 202.52 982.561 201.688 979.649 200.024C976.772 198.36 974.501 196.107 972.837 193.264C971.173 190.387 970.341 187.232 970.341 183.8C970.341 180.368 971.173 177.231 972.837 174.388C974.501 171.511 976.772 169.24 979.649 167.576C982.561 165.912 985.751 165.08 989.217 165.08C990.951 165.08 992.615 165.271 994.209 165.652C995.839 166.033 997.295 166.605 998.577 167.368C998.993 167.611 999.305 167.905 999.513 168.252C999.721 168.599 999.825 168.98 999.825 169.396C999.825 170.089 999.583 170.696 999.097 171.216C998.647 171.701 998.092 171.944 997.433 171.944C996.913 171.944 996.463 171.823 996.081 171.58C993.828 170.54 991.54 170.02 989.217 170.02C986.721 170.02 984.433 170.627 982.353 171.84C980.308 173.053 978.679 174.717 977.465 176.832C976.287 178.947 975.697 181.269 975.697 183.8C975.697 186.331 976.287 188.653 977.465 190.768C978.679 192.848 980.308 194.512 982.353 195.76C984.433 196.973 986.721 197.58 989.217 197.58C990.396 197.58 991.627 197.441 992.909 197.164C994.227 196.887 995.353 196.523 996.289 196.072V187.804H989.997C989.304 187.804 988.715 187.579 988.229 187.128C987.744 186.643 987.501 186.053 987.501 185.36C987.501 184.632 987.744 184.043 988.229 183.592C988.715 183.107 989.304 182.864 989.997 182.864H999.149Z" fill="white"/>
<path d="M720.236 218.496C720.548 218.496 720.808 218.583 721.016 218.756C721.224 218.895 721.328 219.137 721.328 219.484C721.328 219.623 721.293 219.796 721.224 220.004L709.316 254.324C709.247 254.532 709.108 254.705 708.9 254.844C708.727 254.948 708.553 255 708.38 255C708.137 255 707.912 254.965 707.704 254.896C707.531 254.792 707.409 254.619 707.34 254.376L697.616 229.832H698.032L688.308 254.376C688.204 254.619 688.048 254.792 687.84 254.896C687.667 254.965 687.459 255 687.216 255C687.043 255 686.869 254.948 686.696 254.844C686.523 254.705 686.401 254.532 686.332 254.324L674.424 220.004C674.355 219.796 674.32 219.64 674.32 219.536C674.32 219.189 674.441 218.929 674.684 218.756C674.961 218.583 675.221 218.496 675.464 218.496C675.672 218.496 675.863 218.565 676.036 218.704C676.244 218.808 676.383 218.964 676.452 219.172L687.632 251.464L687.268 251.516L696.836 227.336C696.905 227.128 697.027 226.972 697.2 226.868C697.373 226.729 697.581 226.66 697.824 226.66C698.032 226.66 698.223 226.729 698.396 226.868C698.604 226.972 698.743 227.128 698.812 227.336L708.484 251.672L708.016 251.724L719.196 219.172C719.265 218.964 719.387 218.808 719.56 218.704C719.733 218.565 719.959 218.496 720.236 218.496ZM733.369 218.6H752.973C753.25 218.6 753.493 218.704 753.701 218.912C753.909 219.12 754.013 219.363 754.013 219.64C754.013 219.952 753.909 220.212 753.701 220.42C753.493 220.593 753.25 220.68 752.973 220.68H733.993L734.513 219.796V235.916L733.889 235.188H750.633C750.91 235.188 751.153 235.292 751.361 235.5C751.569 235.708 751.673 235.951 751.673 236.228C751.673 236.54 751.569 236.8 751.361 237.008C751.153 237.181 750.91 237.268 750.633 237.268H733.993L734.513 236.696V253.18L734.305 252.92H752.973C753.25 252.92 753.493 253.024 753.701 253.232C753.909 253.44 754.013 253.683 754.013 253.96C754.013 254.272 753.909 254.532 753.701 254.74C753.493 254.913 753.25 255 752.973 255H733.369C733.092 255 732.849 254.896 732.641 254.688C732.433 254.48 732.329 254.237 732.329 253.96V219.64C732.329 219.363 732.433 219.12 732.641 218.912C732.849 218.704 733.092 218.6 733.369 218.6ZM792.145 218.6C792.457 218.6 792.699 218.704 792.873 218.912C793.046 219.085 793.133 219.311 793.133 219.588V253.856C793.133 254.237 793.011 254.532 792.769 254.74C792.561 254.913 792.318 255 792.041 255C791.902 255 791.746 254.965 791.573 254.896C791.434 254.827 791.313 254.723 791.209 254.584L767.081 221.616L767.809 221.252V254.116C767.809 254.359 767.705 254.567 767.497 254.74C767.323 254.913 767.098 255 766.821 255C766.509 255 766.266 254.913 766.093 254.74C765.919 254.567 765.833 254.359 765.833 254.116V219.64C765.833 219.259 765.937 218.999 766.145 218.86C766.353 218.687 766.561 218.6 766.769 218.6C766.907 218.6 767.046 218.635 767.185 218.704C767.323 218.739 767.445 218.825 767.549 218.964L791.573 251.724L791.157 252.764V219.588C791.157 219.311 791.261 219.085 791.469 218.912C791.677 218.704 791.902 218.6 792.145 218.6ZM817.809 255C817.497 255 817.237 254.896 817.029 254.688C816.855 254.48 816.769 254.237 816.769 253.96V219.848H818.849V253.96C818.849 254.237 818.745 254.48 818.537 254.688C818.329 254.896 818.086 255 817.809 255ZM805.173 220.576C804.895 220.576 804.653 220.489 804.445 220.316C804.237 220.108 804.133 219.865 804.133 219.588C804.133 219.311 804.237 219.085 804.445 218.912C804.653 218.704 804.895 218.6 805.173 218.6H830.445C830.722 218.6 830.965 218.704 831.173 218.912C831.381 219.085 831.485 219.311 831.485 219.588C831.485 219.9 831.381 220.143 831.173 220.316C830.965 220.489 830.722 220.576 830.445 220.576H805.173Z" fill="white"/>
<path d="M717.324 274.444C718.156 274.444 718.919 274.773 719.612 275.432C720.34 276.056 720.704 276.853 720.704 277.824C720.704 278.136 720.652 278.483 720.548 278.864L710.304 309.024C710.096 309.613 709.732 310.081 709.212 310.428C708.692 310.775 708.12 310.965 707.496 311C706.872 311 706.283 310.827 705.728 310.48C705.173 310.133 704.74 309.631 704.428 308.972L697.044 292.176L689.608 308.972C689.296 309.631 688.863 310.133 688.308 310.48C687.753 310.827 687.164 311 686.54 311C685.916 310.965 685.344 310.775 684.824 310.428C684.304 310.081 683.94 309.613 683.732 309.024L673.488 278.864C673.384 278.483 673.332 278.136 673.332 277.824C673.332 276.853 673.679 276.056 674.372 275.432C675.1 274.773 675.897 274.444 676.764 274.444C677.457 274.444 678.081 274.635 678.636 275.016C679.191 275.363 679.572 275.848 679.78 276.472L687.528 299.976L694.288 283.752C694.565 283.128 694.964 282.643 695.484 282.296C696.004 281.915 696.593 281.741 697.252 281.776C697.911 281.741 698.483 281.915 698.968 282.296C699.488 282.643 699.887 283.128 700.164 283.752L706.56 299.82L714.256 276.472C714.464 275.848 714.845 275.363 715.4 275.016C715.989 274.635 716.631 274.444 717.324 274.444ZM759.003 305.904C759.453 306.181 759.8 306.545 760.043 306.996C760.32 307.447 760.459 307.915 760.459 308.4C760.459 309.024 760.251 309.596 759.835 310.116C759.315 310.74 758.517 311.052 757.443 311.052C756.611 311.052 755.848 310.861 755.155 310.48C752.659 309.059 751.411 306.164 751.411 301.796C751.411 300.548 750.995 299.56 750.163 298.832C749.365 298.104 748.204 297.74 746.679 297.74H736.955V307.828C736.955 308.764 736.695 309.527 736.175 310.116C735.689 310.705 735.031 311 734.199 311C733.193 311 732.309 310.705 731.547 310.116C730.819 309.492 730.455 308.729 730.455 307.828V277.772C730.455 276.871 730.749 276.125 731.339 275.536C731.963 274.912 732.725 274.6 733.627 274.6H748.603C750.405 274.6 752.104 275.085 753.699 276.056C755.293 277.027 756.559 278.361 757.495 280.06C758.465 281.759 758.951 283.665 758.951 285.78C758.951 287.513 758.483 289.212 757.547 290.876C756.611 292.505 755.397 293.805 753.907 294.776C756.091 296.301 757.287 298.347 757.495 300.912C757.599 301.467 757.651 302.004 757.651 302.524C757.789 303.599 757.928 304.379 758.067 304.864C758.205 305.315 758.517 305.661 759.003 305.904ZM748.343 292.384C748.967 292.384 749.573 292.089 750.163 291.5C750.752 290.911 751.237 290.131 751.619 289.16C752 288.155 752.191 287.08 752.191 285.936C752.191 284.965 752 284.081 751.619 283.284C751.237 282.452 750.752 281.793 750.163 281.308C749.573 280.823 748.967 280.58 748.343 280.58H736.955V292.384H748.343ZM804.134 292.8C804.134 296.232 803.371 299.387 801.846 302.264C800.321 305.107 798.206 307.36 795.502 309.024C792.833 310.688 789.817 311.52 786.454 311.52C783.091 311.52 780.058 310.688 777.354 309.024C774.685 307.36 772.587 305.107 771.062 302.264C769.571 299.387 768.826 296.232 768.826 292.8C768.826 289.368 769.571 286.231 771.062 283.388C772.587 280.511 774.685 278.24 777.354 276.576C780.058 274.912 783.091 274.08 786.454 274.08C789.817 274.08 792.833 274.912 795.502 276.576C798.206 278.24 800.321 280.511 801.846 283.388C803.371 286.231 804.134 289.368 804.134 292.8ZM797.374 292.8C797.374 290.477 796.906 288.38 795.97 286.508C795.034 284.601 793.734 283.093 792.07 281.984C790.406 280.875 788.534 280.32 786.454 280.32C784.339 280.32 782.45 280.875 780.786 281.984C779.157 283.059 777.874 284.549 776.938 286.456C776.037 288.363 775.586 290.477 775.586 292.8C775.586 295.123 776.037 297.237 776.938 299.144C777.874 301.051 779.157 302.559 780.786 303.668C782.45 304.743 784.339 305.28 786.454 305.28C788.534 305.28 790.406 304.725 792.07 303.616C793.734 302.507 795.034 301.016 795.97 299.144C796.906 297.237 797.374 295.123 797.374 292.8ZM842.715 274.6C843.547 274.6 844.223 274.877 844.743 275.432C845.263 275.987 845.523 276.68 845.523 277.512V307.828C845.523 308.729 845.211 309.492 844.587 310.116C843.998 310.705 843.252 311 842.351 311C841.866 311 841.38 310.931 840.895 310.792C840.444 310.619 840.115 310.393 839.907 310.116L820.823 285.884V308.088C820.823 308.92 820.546 309.613 819.991 310.168C819.471 310.723 818.778 311 817.911 311C817.079 311 816.403 310.723 815.883 310.168C815.363 309.613 815.103 308.92 815.103 308.088V277.772C815.103 276.871 815.398 276.125 815.987 275.536C816.611 274.912 817.374 274.6 818.275 274.6C818.795 274.6 819.298 274.704 819.783 274.912C820.303 275.12 820.684 275.397 820.927 275.744L839.855 299.872V277.512C839.855 276.68 840.115 275.987 840.635 275.432C841.19 274.877 841.883 274.6 842.715 274.6ZM885.173 291.344C886.075 291.344 886.82 291.656 887.409 292.28C887.999 292.869 888.293 293.615 888.293 294.516V305.54C888.293 306.753 887.756 307.689 886.681 308.348C883.284 310.463 879.557 311.52 875.501 311.52C872.069 311.52 868.897 310.688 865.985 309.024C863.073 307.325 860.768 305.055 859.069 302.212C857.371 299.335 856.521 296.197 856.521 292.8C856.521 289.403 857.371 286.283 859.069 283.44C860.768 280.563 863.073 278.292 865.985 276.628C868.897 274.929 872.069 274.08 875.501 274.08C878.933 274.08 881.915 274.773 884.445 276.16C884.965 276.437 885.347 276.801 885.589 277.252C885.867 277.703 886.005 278.188 886.005 278.708C886.005 279.575 885.711 280.337 885.121 280.996C884.567 281.62 883.873 281.932 883.041 281.932C882.521 281.932 881.949 281.793 881.325 281.516C879.453 280.719 877.512 280.32 875.501 280.32C873.283 280.32 871.237 280.892 869.365 282.036C867.493 283.145 866.003 284.653 864.893 286.56C863.819 288.467 863.281 290.547 863.281 292.8C863.281 295.053 863.819 297.133 864.893 299.04C866.003 300.947 867.493 302.472 869.365 303.616C871.237 304.725 873.283 305.28 875.501 305.28C876.472 305.28 877.512 305.193 878.621 305.02C879.731 304.847 880.701 304.621 881.533 304.344V297.584H876.645C875.744 297.584 874.981 297.289 874.357 296.7C873.768 296.111 873.473 295.365 873.473 294.464C873.473 293.563 873.768 292.817 874.357 292.228C874.981 291.639 875.744 291.344 876.645 291.344H885.173Z" fill="white"/>
</svg>
